<?xml version="1.0" standalone="no"?>
<!DOCTYPE svg PUBLIC "-//W3C//DTD SVG 1.1//EN" "http://www.w3.org/Graphics/SVG/1.1/DTD/svg11.dtd">
<svg xmlns="http://www.w3.org/2000/svg" id="Capa_1" data-name="Capa 1" version="1.1" viewBox="0 0 1942 368.6" width="1942" height="368.6000061035156">
  <defs>
    <style>
      .cls-1 {
        fill: #1b3380;
      }

      .cls-1, .cls-2 {
        stroke-width: 0px;
      }

      .cls-2 {
        fill: #1b87e6;
      }
    </style>
  </defs>
  <path class="cls-1" d="M324.9,0H43.8C19.6,0,0,19.6,0,43.8v281C0,349,19.6,368.6,43.8,368.6h281c24.2,0,43.8-19.6,43.8-43.8V43.8C368.7,19.6,349.1,0,324.9,0ZM139.3,314.4c-11.9,0-21.5-9.6-21.5-21.5s9.6-21.5,21.5-21.5,21.5,9.6,21.5,21.5-9.6,21.5-21.5,21.5ZM221.2,206.8h0s-61.4,0-61.4,0v41h-41v-41h0v-41h102.4s0,0,0,0c17,0,30.7-13.8,30.7-30.7s-13.8-30.7-30.7-30.7h0s-102.4,0-102.4,0v-41h102.4c39.6,0,71.7,32.1,71.7,71.7s-32.1,71.7-71.7,71.7Z"/>
  <g>
    <g>
      <path class="cls-1" d="M544.1,271.4v12.7c0,14.9,3.2,17.4,18.4,17.4h17.3c3.6,0,6.4,1.4,6.4,5v10.3c0,5-8.8,7.1-24.1,7.1-29,0-44.6-7.8-44.6-39v-13.5c-39.3-5-66.9-32.9-66.9-92.4v-38.6c0-65.9,34-93.1,80.4-93.1s80,27.3,80,93.1v38.2c.3,59.8-27.3,88.2-66.9,92.8M584.5,140.8c0-49.9-20.2-69-52.8-69s-53.1,19.1-53.1,69v38.2c0,49.9,20.5,69,53.1,69s52.8-19.1,52.8-69v-38.2Z"/>
      <path class="cls-1" d="M757.7,270h-14.9c-3.5,0-5.7-2.8-5.7-6v-5.7c-16.3,9.2-29.7,13.8-47.1,13.8-35.8,0-51.7-22.3-51.7-61.6v-97.7c0-3.2,2.8-6,6-6h14.2c3.2,0,6,2.8,6,6v97.7c0,30.1,10.3,39.3,32.6,39.3s26.2-5,40-11.7v-125.4c0-2.8,2.8-6,6-6h14.5c2.8,0,5.7,2.8,5.7,6v151.6c0,3.2-2.5,5.7-5.7,5.7"/>
      <path class="cls-1" d="M913.2,196.7h-99.5v4.3c0,35.4,13.8,48.5,41.5,48.5s39.3-1.4,52.8-3.2h1.4c2.5,0,5,1.4,5,4.3v10.3c0,3.9-1.4,6-6,6.7-17,3.5-33.3,5-53.1,5-34,0-67.3-15.9-67.3-71.2v-26.9c0-42.5,23.4-69.4,65.9-69.4s65.5,27.3,65.5,69.4v15.9c-.4,3.9-2.5,6.4-6,6.4M892.3,174c0-33.6-12.7-46.7-39-46.7s-40,14.5-40,46.7v2.8h79v-2.8Z"/>
      <path class="cls-1" d="M990,272.1c-11,0-32.6-.7-47.1-4.6-3.9-.7-6.4-2.8-6.4-6v-9.9c0-2.8,2.5-4.6,5.3-4.6h1.4c14.2,1.8,35.8,3.5,46.8,3.5,19.5,0,29.4-5,29.4-21.2s-5.3-14.5-22.3-24.8l-30.1-18.1c-18.1-11-30.5-23.7-30.5-42.5,0-31.2,23-39.3,53.8-39.3s32.6,1.4,46.4,3.9c3.9.7,5.7,2.8,5.7,6v9.6c0,3.5-2.1,5-5,5h-.7c-10.3-.7-29.4-2.5-46-2.5s-27.6,2.1-27.6,17.3,6.7,14.5,20.5,22.7l29.4,17.3c24.8,14.5,32.6,27.3,32.6,45,0,30.5-22.3,43.2-55.6,43.2"/>
      <path class="cls-1" d="M1153.3,270.7c-6,.7-13.8,1.4-19.5,1.4-27.3,0-40.4-7.1-40.4-40v-103.7l-29-3.5c-3.6-.4-5.7-2.1-5.7-5.3v-8.1c0-3.2,2.5-5.3,5.7-5.3h29v-29c0-2.8,2.1-5.3,5.3-6l15.2-2.5h.7c2.5,0,4.6,2.1,4.6,5v32.6h31.9c3.5,0,6,2.8,6,6v10.3c0,3.2-2.8,6-6,6h-31.9v103.7c0,16.3,4.3,18.8,15.9,18.8h16.6c4.3,0,6.4,1.4,6.4,4.3v10.3c.4,2.8-1.1,4.6-5,5.3"/>
      <path class="cls-1" d="M1198.6,80.6h-15.2c-3.6,0-6-2.8-6-6v-23.7c0-3.5,2.8-6,6-6h15.2c3.6,0,6,2.8,6,6v23.7c0,3.5-2.8,6-6,6M1197.9,270h-14.2c-3.5,0-6-2.8-6-6V112.4c0-3.2,2.8-6,6-6h14.2c3.5,0,6,2.8,6,6v151.6c0,3.6-2.5,6-6,6"/>
      <path class="cls-1" d="M1294.9,272.1c-43.6,0-65.9-29-65.9-72.6v-22.3c0-43.6,22.3-72.6,65.9-72.6s66.2,29,66.2,72.6v22.7c0,43.6-22.7,72.2-66.2,72.2M1335,177.2c0-30.5-12.4-49.6-40-49.6s-40,19.1-40,49.6v22.7c0,30.5,11.7,49.6,40,49.6s40-19.1,40-49.6v-22.7Z"/>
      <path class="cls-1" d="M1504.3,270h-14.2c-3.6,0-6-2.8-6-6v-97.7c0-30.1-10.3-39.3-32.6-39.3s-26.2,5-40,11.7v125.3c0,2.8-2.8,6-6,6h-14.5c-2.8,0-5.7-2.8-5.7-6V112.4c0-3.2,2.5-6,5.7-6h14.9c3.5,0,5.7,2.8,5.7,6v5.7c16.3-9.2,29.7-13.8,47.1-13.8,35.8,0,51.7,22.3,51.7,61.6v97.7c-.4,3.9-2.8,6.4-6,6.4"/>
    </g>
    <g>
      <path class="cls-2" d="M1597.4,182.2c-9.6,0-22-.7-29.8-1.4v83.6c0,2.8-2.1,6-5.3,6h-15.9c-2.8,0-5.3-2.8-5.3-6V57.2c0-4.3,2.8-6.7,7.1-7.4,12.7-1.4,31.9-2.5,49.2-2.5,48.2,0,83.2,16.6,83.2,64.4v3.9c0,49.6-35.1,66.6-83.2,66.6M1653.7,111.7c0-30.1-18.1-41.4-56-41.4s-22.7.7-29.7,1.4v87.1c6.7.3,22,1.4,29.7,1.4,40.7,0,56-13.1,56-43.9v-4.6Z"/>
      <path class="cls-2" d="M1769.9,127.3c-13.8,0-26.2,3.5-40.7,12.4v124.3c0,2.8-2.8,6-6,6h-14.5c-2.8,0-5.7-2.8-5.7-6V112.4c0-3.2,2.5-6,5.7-6h13.8c3.2,0,5.7,2.8,5.7,6v6.4c14.9-10.3,28.3-14.2,41.8-14.2s6.4,1.8,6.4,5.3v12.4c-.3,3.2-2.5,5-6.4,5"/>
      <path class="cls-2" d="M1850.6,272.1c-43.6,0-65.9-29-65.9-72.6v-22.3c0-43.6,22.3-72.6,65.9-72.6s66.2,29,66.2,72.6v22.7c0,43.6-22.7,72.2-66.2,72.2M1890.7,177.2c0-30.5-12.4-49.6-40-49.6s-40,19.1-40,49.6v22.7c0,30.5,11.7,49.6,40,49.6s40-19.1,40-49.6v-22.7Z"/>
    </g>
  </g>
</svg>